# xmcd
#
# Track frame offsets:
# 187
# 11764
# 22819
# 33169
# 44337
# 57024
# 70499
# 84217
# 99517
# 111347
# 122854
# 137729
# 151709
# 163564
# 175327
# 194952
# 211244
# 230034
# 245307
# 261414
#
# Disc length: 3688 seconds
#
# Revision: 0
# Processed by: cddbd v1.5.1PL0 Copyright (c) Steve Scherf et al.
# Submitted via: MacMP3 Pro 5.0 (http://mp3.act2.co.jp/)
#
DISCID=120e6614
DTITLE=Frankie Valli and The Four Seasons - The Best Of Frankie Valli and The Four Seasons
DYEAR=1900
DGENRE=
TTITLE0=Sherry
TTITLE1=Big Girls Don't Cry
TTITLE2=Walk Like A Man
TTITLE3=Connie-O
TTITLE4=Dawn (Go Away)
TTITLE5=Ronnie
TTITLE6=Rag Doll
TTITLE7=Silence Is Golden
TTITLE8=Save It For Me
TTITLE9=Bye Bye Love (Baby Goodbye)
TTITLE10=Let's Hang On
TTITLE11=Working My Way Back To You
TTITLE12=Tell It To The Rain
TTITLE13=C'mon Marianne
TTITLE14=Who Loves You
TTITLE15=December 1963 (Oh, What A Night)
TTITLE16=Silver Star
TTITLE17=Can't Take My Eyes Off You
TTITLE18=My Eyes Adored You
TTITLE19=Grease
EXTD=
EXTT0=
EXTT1=
EXTT2=
EXTT3=
EXTT4=
EXTT5=
EXTT6=
EXTT7=
EXTT8=
EXTT9=
EXTT10=
EXTT11=
EXTT12=
EXTT13=
EXTT14=
EXTT15=
EXTT16=
EXTT17=
EXTT18=
EXTT19=
PLAYORDER=
